<svg width="48" height="49" viewBox="0 0 48 49" fill="none" xmlns="http://www.w3.org/2000/svg">
<path d="M47.1965 18.4672C43.7639 5.26958 30.3172 -2.63757 17.1624 0.806135C8.90512 2.96773 5.17719 8.19755 4.11401 9.32666H4.13268C4.98611 8.42031 8.06277 4.10444 14.691 2.36929C25.2506 -0.395031 36.0446 5.95218 38.7999 16.5462C40.6021 23.4753 38.5191 30.5049 33.9076 35.3128C32.9392 36.1302 32.3606 36.5444 31.2818 37.2079L35.2205 46.2633C37.6165 44.8704 38.8309 43.7936 40.3079 42.637C46.6034 36.6443 49.5425 27.4874 47.1965 18.4672Z" fill="#789160"/>
<path d="M24.0534 33.2564C24.0534 37.5283 20.602 40.9886 16.3479 40.9886C12.0938 40.9886 8.6424 37.5283 8.6424 33.2564C8.6424 28.9845 12.0938 25.5242 16.3479 25.5242C20.602 25.5242 24.0534 28.9845 24.0534 33.2564Z" fill="#EAE9EA" stroke="#C9C7C9"/>
<path d="M21.2174 39.1307C20.3581 37.6773 16.2711 37.3497 13.13 37.1708C11.9574 37.104 11.1058 36.047 11.2862 34.8858C11.2978 34.811 11.3519 34.7488 11.4238 34.7257C16.4107 33.13 18.9496 33.4462 22.8933 34.9137C24.5195 35.6766 26.4872 36.7659 28.2826 37.5711C29.1249 37.9489 30.4999 37.7095 31.2809 37.22L35.2257 46.2691C30.8708 49.0624 26.1882 48.9025 22.6379 48.5243C11.3289 47.3194 3.88051 39.4271 0.717283 33.6171C0.286952 32.8267 0.027417 31.6597 0.840886 31.2791C1.37084 31.0312 2.07036 31.4439 2.48794 31.8553C3.3575 32.7121 4.17493 33.5475 5.06121 34.4247C9.00528 38.3286 14.2744 43.0387 19.2718 40.6509C19.8322 40.3831 20.4189 40.0452 21.0568 39.6386C21.2319 39.527 21.3233 39.3098 21.2174 39.1307Z" fill="#789160"/>
<path d="M8.5631 37.2677L5.22843 33.9392C4.61361 32.6438 4.31425 31.8054 4.36353 30.9842C4.39813 30.4074 5.06167 30.1445 5.50206 30.5191C6.03768 30.9746 6.4768 31.6003 7.09013 32.5504C7.92293 34.4191 8.14421 35.4416 8.5631 37.2677Z" fill="#789160"/>
<path d="M28.8113 18.3059C27.9825 17.9925 27.9021 17.8511 27.3235 17.5616L27.2027 19.0517C29.0824 18.7954 30.009 19.0941 31.3756 20.6225C31.5827 20.2866 31.6413 20.0876 31.6215 19.7118C30.8003 19.0477 30.2564 18.7101 28.8113 18.3059Z" fill="#789160"/>
<path d="M12.468 20.8885C9.07863 19.1927 11.1826 18.2808 5.60109 14.7643C11.3984 14.6148 16.9838 9.57239 22.3706 11.7363C24.2741 12.5009 25.8824 14.0953 27.6546 16.6994C21.8196 14.7586 18.6373 14.1204 13.3226 14.8019C18.7644 15.0868 21.5535 15.5177 25.4366 16.5939C25.9792 16.7443 26.9495 17.1555 27.4258 17.4567C28.7563 18.2977 27.3808 19.4235 25.9849 20.1447C21.0118 22.7143 17.1267 23.0373 12.468 20.8885Z" fill="#789160"/>
</svg>
