<svg width="128" height="128" viewBox="0 0 128 128" fill="none" xmlns="http://www.w3.org/2000/svg">
<path d="M64.7256 88.6839C64.7256 100.396 55.2625 109.886 43.5943 109.886C31.9261 109.886 22.463 100.396 22.463 88.6839C22.463 76.9717 31.9261 67.4813 43.5943 67.4813C55.2625 67.4813 64.7256 76.9717 64.7256 88.6839Z" fill="#EAE9EA" stroke="#C9C7C9" stroke-width="1.5"/>
<path d="M22.1486 97.8906L13.1981 89.1475C11.5478 85.7451 10.7444 83.5428 10.8766 81.3857C10.9695 79.8706 12.7505 79.1801 13.9325 80.1639C15.3702 81.3605 16.5488 83.0041 18.195 85.4996C20.4303 90.4081 21.0242 93.0938 22.1486 97.8906Z" fill="#789160"/>
<path d="M45.2296 2.11746C80.5382 -6.92805 116.63 13.8415 125.843 48.5076C132.14 72.2007 124.252 96.2531 107.354 111.994C103.39 115.032 100.13 117.86 93.6989 121.519C82.0102 128.856 69.4556 128.451 59.9263 127.458C29.5722 124.293 9.58006 103.562 1.08973 88.3015C-0.0653111 86.2254 -0.761921 83.16 1.42149 82.1604C2.84392 81.5091 4.72147 82.5931 5.84229 83.6739C8.17626 85.9244 10.3703 88.1185 12.7491 90.4228C23.3353 100.677 37.4781 113.049 50.8913 106.777C52.3955 106.074 53.9703 105.186 55.6825 104.118C56.1523 103.825 56.3977 103.254 56.1135 102.784C53.8071 98.9664 42.8374 98.1057 34.4065 97.6359C31.2589 97.4605 28.9733 94.684 29.4573 91.6338C29.4885 91.4376 29.6338 91.274 29.8269 91.2135C43.2119 87.0219 50.0265 87.8524 60.6116 91.7071C64.9765 93.7111 70.258 96.5725 75.0771 98.6875C77.3377 99.6796 81.031 99.0189 83.1273 97.7333C86.0229 95.9904 87.5758 94.9026 90.175 92.7556C102.553 80.1267 108.143 61.6621 103.306 43.4616C95.9108 15.6345 66.9391 -1.03762 38.5963 6.22338C20.8057 10.7811 12.5477 22.1175 10.257 24.4982H10.2069C13.0606 21.5324 23.0666 7.79529 45.2296 2.11746Z" fill="#789160"/>
<path d="M34.2948 54.9177C25.2649 50.4407 30.8703 48.0334 16 38.7499C31.4453 38.3551 46.3259 25.0433 60.6776 30.7559C65.7487 32.7744 70.0335 36.9836 74.7552 43.8585C59.2094 38.7347 50.7312 37.05 36.5718 38.8492C51.0698 39.6013 58.5005 40.7388 68.8459 43.5801C70.2915 43.9771 72.8765 45.0626 74.1456 45.8576C77.6903 48.0781 74.0258 51.05 70.3068 52.9541C57.0574 59.7378 46.7066 60.5906 34.2948 54.9177Z" fill="#789160"/>
<path d="M74.1456 45.8576C76.2157 47.1544 75.8271 48.7074 74.4048 50.1543C79.4126 49.4775 81.0276 50.1805 84.6687 54.2154C85.2204 53.3286 85.3765 52.8032 85.3237 51.8112C83.1359 50.0578 81.6869 49.1666 77.8367 48.0996C75.6287 47.2721 75.5 46.7501 74.1456 45.8576Z" fill="#789160"/>
</svg>
