<svg width="256" height="256" viewBox="0 0 256 256" fill="none" xmlns="http://www.w3.org/2000/svg">
<path d="M129.451 177.368C129.451 200.792 110.525 219.773 87.1886 219.773C63.8522 219.773 44.926 200.792 44.926 177.368C44.926 153.943 63.8522 134.963 87.1886 134.963C110.525 134.963 129.451 153.943 129.451 177.368Z" fill="#EAE9EA" stroke="#C9C7C9" stroke-width="3"/>
<path d="M44.2971 195.781L26.3962 178.295C23.0957 171.49 21.4887 167.086 21.7532 162.771C21.939 159.741 25.501 158.36 27.865 160.328C30.7403 162.721 33.0976 166.008 36.39 170.999C40.8606 180.816 42.0484 186.188 44.2971 195.781Z" fill="#789160"/>
<path d="M90.4592 4.23492C161.076 -13.8561 233.26 27.683 251.687 97.0152C264.28 144.401 248.503 192.506 214.708 223.988C206.779 230.064 200.26 235.721 187.398 243.038C164.02 257.712 138.911 256.903 119.853 254.916C59.1444 248.586 19.1601 207.125 2.17946 176.603C-0.130622 172.451 -1.52384 166.32 2.84297 164.321C5.68783 163.018 9.44295 165.186 11.6846 167.348C16.3525 171.849 20.7406 176.237 25.4983 180.846C46.6707 201.354 74.9561 226.098 101.783 213.554C104.791 212.147 107.941 210.372 111.365 208.236C112.305 207.65 112.795 206.509 112.227 205.568C107.614 197.933 85.6748 196.211 68.813 195.272C62.5179 194.921 57.9466 189.368 58.9147 183.268C58.977 182.875 59.2676 182.548 59.6537 182.427C86.4239 174.044 100.053 175.705 121.223 183.414C129.953 187.422 140.516 193.145 150.154 197.375C154.675 199.359 162.062 198.038 166.255 195.467C172.046 191.981 175.152 189.805 180.35 185.511C205.105 160.253 216.287 123.324 206.613 86.9232C191.822 31.269 133.878 -2.07524 77.1926 12.4468C41.6113 21.5621 25.0954 44.235 20.514 48.9963H20.4138C26.1211 43.0648 46.1332 15.5906 90.4592 4.23492Z" fill="#789160"/>
<path d="M68.5897 109.835C50.5298 100.881 61.7407 96.0667 32 77.4998C62.8905 76.7101 92.6517 50.0864 121.355 61.5116C131.497 65.5487 140.067 73.9671 149.51 87.7169C118.419 77.4692 101.462 74.1 73.1437 77.6983C102.14 79.2024 117.001 81.4774 137.692 87.16C140.583 87.9541 145.753 90.1251 148.291 91.7151C155.381 96.1561 148.052 102.1 140.614 105.908C114.115 119.475 93.4132 121.181 68.5897 109.835Z" fill="#789160"/>
<path d="M148.291 91.7151C152.431 94.3086 151.654 97.4146 148.81 100.309C158.825 98.9549 162.055 100.361 169.337 108.431C170.441 106.657 170.753 105.606 170.647 103.622C166.272 100.116 163.374 98.3331 155.673 96.1992C151.257 94.5441 151 93.5 148.291 91.7151Z" fill="#789160"/>
</svg>
