<svg width="48" height="48" viewBox="0 0 48 48" fill="none" xmlns="http://www.w3.org/2000/svg">
<path d="M24.3034 33.2564C24.3034 37.6656 20.7408 41.2386 16.3479 41.2386C11.9549 41.2386 8.39238 37.6656 8.39238 33.2564C8.39238 28.8472 11.9549 25.2742 16.3479 25.2742C20.7408 25.2742 24.3034 28.8472 24.3034 33.2564Z" fill="#EAE9EA" stroke="#C9C7C9" stroke-width="0.5"/>
<path d="M8.30571 36.709L4.94928 33.4303C4.33044 32.1544 4.02913 31.3286 4.07873 30.5196C4.11356 29.9515 4.78143 29.6925 5.22469 30.0615C5.76381 30.5102 6.20579 31.1265 6.82313 32.0624C7.66136 33.903 7.88408 34.9102 8.30571 36.709Z" fill="#789160"/>
<path d="M16.9611 0.794048C30.2018 -2.59802 43.7363 5.19057 47.1912 18.1904C49.5526 27.0753 46.5943 36.0949 40.2577 41.9977C38.7711 43.137 37.5487 44.1976 35.1371 45.5696C30.7538 48.3211 26.0459 48.1693 22.4724 47.7967C11.0896 46.6099 3.59252 38.8359 0.408649 33.1131C-0.0244917 32.3345 -0.28572 31.185 0.533058 30.8101C1.06647 30.5659 1.77055 30.9724 2.19086 31.3777C3.0661 32.2216 3.88886 33.0444 4.78093 33.9085C8.75075 37.7539 14.0543 42.3933 19.0842 40.0414C19.6483 39.7776 20.2389 39.4447 20.881 39.0442C21.0571 38.9343 21.1491 38.7204 21.0426 38.544C20.1776 37.1124 16.064 36.7896 12.9024 36.6134C11.7221 36.5477 10.865 35.5065 11.0465 34.3627C11.0582 34.2891 11.1127 34.2277 11.1851 34.2051C16.2045 32.6332 18.7599 32.9447 22.7294 34.3902C24.3662 35.1417 26.3467 36.2147 28.1539 37.0078C29.0016 37.3799 30.3866 37.1321 31.1727 36.65C32.2586 35.9964 32.8409 35.5885 33.8156 34.7833C38.4572 30.0475 40.5538 23.1233 38.7399 16.2981C35.9666 5.86294 25.1022 -0.389108 14.4736 2.33377C7.80212 4.0429 4.70538 8.29405 3.84638 9.18681H3.82759C4.89771 8.07464 8.64997 2.92323 16.9611 0.794048Z" fill="#789160"/>
<path d="M12.8606 20.5941C9.47434 18.9152 11.5764 18.0125 6 14.5312C11.792 14.3832 17.3722 9.3912 22.7541 11.5334C24.6557 12.2904 26.2626 13.8688 28.0332 16.4469C22.2035 14.5255 19.0242 13.8937 13.7144 14.5684C19.1512 14.8505 21.9377 15.277 25.8172 16.3425C26.3593 16.4914 27.3287 16.8985 27.8046 17.1966C29.1339 18.0293 27.7597 19.1437 26.365 19.8578C21.3965 22.4017 17.515 22.7214 12.8606 20.5941Z" fill="#789160"/>
<path d="M27.8046 17.1966C28.5809 17.6829 28.4352 18.2653 27.9018 18.8079C29.7797 18.554 30.3854 18.8177 31.7508 20.3308C31.9576 19.9982 32.0162 19.8012 31.9964 19.4292C31.1759 18.7717 30.6326 18.4375 29.1888 18.0373C28.3608 17.727 28.3125 17.5313 27.8046 17.1966Z" fill="#789160"/>
</svg>
