<svg width="24" height="24" viewBox="0 0 24 24" fill="none" xmlns="http://www.w3.org/2000/svg">
<path d="M21 10.0909C21 16.7727 12 22.5 12 22.5C12 22.5 3 16.7727 3 10.0909C3 7.81246 3.94821 5.62733 5.63604 4.01622C7.32387 2.40511 9.61305 1.5 12 1.5C14.3869 1.5 16.6761 2.40511 18.364 4.01622C20.0518 5.62733 21 7.81246 21 10.0909Z" stroke="black" stroke-width="2" stroke-linecap="round" stroke-linejoin="round"/>
<path d="M12 13C13.6569 13 15 11.6569 15 10C15 8.34315 13.6569 7 12 7C10.3431 7 9 8.34315 9 10C9 11.6569 10.3431 13 12 13Z" stroke="black" stroke-width="2" stroke-linecap="round" stroke-linejoin="round"/>
</svg>
