<?xml version="1.0" standalone="no"?>
<!DOCTYPE svg PUBLIC "-//W3C//DTD SVG 20010904//EN"
 "http://www.w3.org/TR/2001/REC-SVG-20010904/DTD/svg10.dtd">
<svg version="1.0" xmlns="http://www.w3.org/2000/svg"
 width="700.000000pt" height="700.000000pt" viewBox="0 0 700.000000 700.000000"
 preserveAspectRatio="xMidYMid meet">
<metadata>
Created by potrace 1.14, written by Peter Selinger 2001-2017
</metadata>
<g transform="translate(0.000000,700.000000) scale(0.100000,-0.100000)"
fill="#000000" stroke="none">
<path d="M3158 6995 c-1 -2 -42 -6 -90 -10 -47 -3 -96 -8 -108 -10 -12 -2 -48
-7 -79 -10 -44 -5 -283 -50 -371 -70 -57 -13 -282 -82 -365 -112 -389 -138
-734 -331 -1045 -584 -85 -69 -275 -244 -211 -194 14 11 28 23 31 27 19 24
216 174 320 243 353 234 738 378 1200 450 14 2 52 6 85 10 33 3 80 8 105 10
51 6 369 6 415 1 17 -2 66 -6 110 -10 44 -4 87 -9 95 -11 8 -2 35 -7 60 -10
25 -3 77 -12 115 -20 667 -138 1267 -499 1684 -1014 212 -261 360 -526 476
-851 23 -63 56 -174 56 -185 0 -2 7 -28 15 -57 16 -52 20 -69 29 -123 3 -16 8
-37 10 -45 23 -77 48 -359 48 -530 1 -698 -293 -1425 -775 -1921 -101 -104
-350 -283 -470 -338 -68 -31 -173 -53 -250 -52 -91 1 -154 25 -452 170 l-248
122 7 32 c17 81 20 112 19 257 0 219 -30 345 -131 545 -165 327 -482 559 -863
630 -73 14 -305 14 -385 0 -487 -85 -855 -428 -976 -910 -19 -75 -23 -118 -23
-260 -1 -93 3 -190 7 -215 30 -163 93 -324 178 -452 21 -32 36 -58 33 -58 -5
0 -215 159 -224 169 -3 4 -30 26 -60 51 -30 25 -60 49 -66 55 -6 5 -45 41 -88
80 -119 106 -133 119 -415 394 -145 141 -279 266 -298 279 -89 61 -180 62
-230 3 -40 -46 -42 -132 -4 -231 53 -140 276 -470 490 -725 82 -97 341 -362
432 -441 435 -380 879 -646 1384 -829 106 -39 383 -121 437 -130 18 -3 49 -10
68 -15 44 -11 316 -57 390 -65 30 -3 69 -8 85 -10 220 -26 787 -26 867 0 7 2
33 6 58 9 134 15 358 74 510 133 290 113 712 378 1075 673 108 88 268 255 389
405 330 411 557 865 680 1360 77 311 101 513 101 850 -1 185 -8 332 -20 407
-2 12 -6 44 -9 69 -5 38 -33 193 -52 289 -55 274 -200 649 -362 940 -217 389
-522 750 -873 1032 -465 374 -1026 633 -1608 743 -93 18 -111 21 -226 35 -44
6 -98 13 -120 16 -43 6 -561 15 -567 9z"/>
<path d="M804 5928 l-19 -23 23 19 c21 18 27 26 19 26 -2 0 -12 -10 -23 -22z"/>
<path d="M2770 5389 c-219 -21 -401 -73 -880 -249 -361 -133 -583 -202 -715
-224 -16 -3 -59 -10 -95 -16 -36 -6 -90 -13 -120 -15 -30 -1 -61 -3 -68 -4 -7
-1 33 -32 90 -70 253 -169 393 -299 523 -487 138 -197 239 -275 485 -375 103
-43 279 -99 350 -113 173 -34 212 -38 370 -41 141 -2 307 13 418 40 12 3 30 7
40 9 265 61 680 240 842 363 70 54 72 54 155 60 173 12 260 -24 401 -166 34
-33 64 -61 67 -61 8 0 29 68 32 101 2 25 -7 35 -71 79 -86 60 -169 99 -274
130 -94 28 -155 59 -231 115 -66 48 -147 89 -255 128 -109 39 -434 120 -614
153 -14 2 -47 9 -75 14 -27 5 -68 12 -90 15 -22 3 -80 12 -130 19 -49 8 -119
17 -155 21 -36 4 -76 8 -90 10 -14 2 -59 6 -100 10 -41 4 -91 8 -110 10 -19 2
-84 7 -145 11 -60 4 -126 8 -145 9 -19 2 -62 3 -94 4 -94 2 -71 8 96 26 92 11
163 14 343 15 258 2 435 -14 695 -65 183 -36 509 -125 758 -208 56 -19 102
-32 102 -30 0 5 -33 57 -40 63 -3 3 -17 21 -30 40 -14 19 -30 42 -37 50 -6 8
-40 51 -75 94 -126 160 -297 313 -446 399 -35 20 -65 37 -66 37 -2 0 -21 8
-42 17 -22 9 -41 17 -44 18 -3 0 -27 8 -55 18 -134 45 -312 62 -475 46z"/>
<path d="M637 2622 c-15 -9 -30 -25 -33 -36 -25 -79 4 -215 82 -384 33 -72 49
-89 277 -313 133 -130 243 -236 244 -235 5 5 -86 354 -107 411 -62 171 -108
266 -174 358 -73 103 -148 187 -183 206 -31 16 -74 13 -106 -7z"/>
</g>
</svg>
